<svg width="63" height="13" viewBox="0 0 63 13" fill="none" xmlns="http://www.w3.org/2000/svg">
<path d="M1.552 12H1.024C0.906667 11.5733 0.826667 11.1413 0.784 10.704C0.741333 10.256 0.72 9.87733 0.72 9.568C0.72 8.77867 0.842667 8.00533 1.088 7.248C1.344 6.48 1.64267 5.73867 1.984 5.024C2.32533 4.29867 2.672 3.59467 3.024 2.912C3.376 2.22933 3.648 1.57867 3.84 0.959999L7.856 1.184C8.28267 1.20533 8.60267 1.18933 8.816 1.136C9.04 1.072 9.2 0.975999 9.296 0.848H9.472C9.472 1.49867 9.33867 1.94133 9.072 2.176C8.816 2.4 8.464 2.512 8.016 2.512C7.70667 2.512 7.38133 2.48533 7.04 2.432C6.70933 2.368 6.37867 2.29867 6.048 2.224C5.728 2.14933 5.424 2.06933 5.136 1.984C4.848 1.89867 4.592 1.83467 4.368 1.792C4.336 2.048 4.288 2.34667 4.224 2.688C4.17067 3.02933 4.10667 3.38667 4.032 3.76C3.95733 4.12267 3.872 4.50133 3.776 4.896C3.68 5.28 3.584 5.64267 3.488 5.984H7.12L6.88 6.864H3.232C3.22133 6.90667 3.2 6.97067 3.168 7.056C3.14667 7.14133 3.07733 7.34933 2.96 7.68C2.85333 8.01067 2.688 8.51733 2.464 9.2C2.25067 9.872 1.94667 10.8053 1.552 12ZM15.2443 0.815999C15.8843 0.815999 16.4283 0.911999 16.8763 1.104C17.3349 1.296 17.7029 1.56267 17.9803 1.904C18.2683 2.24533 18.4763 2.656 18.6043 3.136C18.7429 3.60533 18.8123 4.11733 18.8123 4.672C18.8123 5.42933 18.6523 6.24533 18.3323 7.12C18.0229 7.99467 17.5856 8.80533 17.0203 9.552C16.4656 10.288 15.8043 10.9067 15.0363 11.408C14.2683 11.8987 13.4309 12.144 12.5243 12.144C11.1803 12.144 10.2309 11.8027 9.67625 11.12C9.13225 10.4373 8.86025 9.49333 8.86025 8.288C8.86025 7.54133 9.02025 6.73067 9.34025 5.856C9.66025 4.98133 10.0976 4.17067 10.6523 3.424C11.2176 2.67733 11.8896 2.05867 12.6683 1.568C13.4576 1.06667 14.3163 0.815999 15.2443 0.815999ZM16.2043 6.704C16.3643 6.224 16.5136 5.81867 16.6523 5.488C16.8016 5.15733 16.9243 4.87467 17.0203 4.64C17.1269 4.39467 17.2069 4.176 17.2603 3.984C17.3243 3.792 17.3563 3.58933 17.3563 3.376C17.3563 2.81067 17.1429 2.37867 16.7163 2.08C16.3003 1.77067 15.7776 1.616 15.1483 1.616C14.6043 1.616 14.1456 1.74933 13.7723 2.016C13.4096 2.272 13.1003 2.61867 12.8443 3.056C12.5883 3.48267 12.3589 3.97867 12.1562 4.544C11.9643 5.09867 11.7616 5.66933 11.5483 6.256C11.3776 6.736 11.2176 7.14133 11.0683 7.472C10.9189 7.80267 10.7909 8.09067 10.6843 8.336C10.5776 8.58133 10.4923 8.8 10.4283 8.992C10.3749 9.184 10.3483 9.38133 10.3483 9.584C10.3483 10.128 10.5349 10.56 10.9083 10.88C11.2816 11.1893 11.8149 11.344 12.5083 11.344C13.0949 11.344 13.5803 11.2213 13.9643 10.976C14.3589 10.72 14.6896 10.384 14.9563 9.968C15.2229 9.54133 15.4469 9.04533 15.6283 8.48C15.8203 7.91467 16.0123 7.32267 16.2043 6.704ZM26.6036 0.815999C27.2436 0.815999 27.7876 0.911999 28.2356 1.104C28.6943 1.296 29.0623 1.56267 29.3396 1.904C29.6276 2.24533 29.8356 2.656 29.9636 3.136C30.1023 3.60533 30.1716 4.11733 30.1716 4.672C30.1716 5.42933 30.0116 6.24533 29.6916 7.12C29.3823 7.99467 28.945 8.80533 28.3796 9.552C27.825 10.288 27.1636 10.9067 26.3956 11.408C25.6276 11.8987 24.7903 12.144 23.8836 12.144C22.5396 12.144 21.5903 11.8027 21.0356 11.12C20.4916 10.4373 20.2196 9.49333 20.2196 8.288C20.2196 7.54133 20.3796 6.73067 20.6996 5.856C21.0196 4.98133 21.457 4.17067 22.0116 3.424C22.577 2.67733 23.249 2.05867 24.0276 1.568C24.817 1.06667 25.6756 0.815999 26.6036 0.815999ZM27.5636 6.704C27.7236 6.224 27.873 5.81867 28.0116 5.488C28.161 5.15733 28.2836 4.87467 28.3796 4.64C28.4863 4.39467 28.5663 4.176 28.6196 3.984C28.6836 3.792 28.7156 3.58933 28.7156 3.376C28.7156 2.81067 28.5023 2.37867 28.0756 2.08C27.6596 1.77067 27.137 1.616 26.5076 1.616C25.9636 1.616 25.505 1.74933 25.1316 2.016C24.769 2.272 24.4596 2.61867 24.2036 3.056C23.9476 3.48267 23.7183 3.97867 23.5156 4.544C23.3236 5.09867 23.121 5.66933 22.9076 6.256C22.737 6.736 22.577 7.14133 22.4276 7.472C22.2783 7.80267 22.1503 8.09067 22.0436 8.336C21.937 8.58133 21.8516 8.8 21.7876 8.992C21.7343 9.184 21.7076 9.38133 21.7076 9.584C21.7076 10.128 21.8943 10.56 22.2676 10.88C22.641 11.1893 23.1743 11.344 23.8676 11.344C24.4543 11.344 24.9396 11.2213 25.3236 10.976C25.7183 10.72 26.049 10.384 26.3156 9.968C26.5823 9.54133 26.8063 9.04533 26.9876 8.48C27.1796 7.91467 27.3716 7.32267 27.5636 6.704ZM34.475 0.959999H37.067C37.963 0.959999 38.7043 1.08267 39.291 1.328C39.8777 1.56267 40.3417 1.86667 40.683 2.24C41.0243 2.61333 41.2643 3.04 41.403 3.52C41.5417 4 41.611 4.47467 41.611 4.944C41.611 5.776 41.4297 6.61867 41.067 7.472C40.715 8.31467 40.2137 9.072 39.563 9.744C38.9123 10.4053 38.123 10.9493 37.195 11.376C36.2777 11.792 35.259 12 34.139 12H31.595V10.112C31.595 9.312 31.7017 8.50133 31.915 7.68C32.1283 6.85867 32.3843 6.05867 32.683 5.28C32.9817 4.49067 33.2963 3.728 33.627 2.992C33.9577 2.256 34.2403 1.57867 34.475 0.959999ZM32.795 11.168H33.691C34.3523 11.168 34.9443 11.1147 35.467 11.008C35.9897 10.8907 36.4537 10.6933 36.859 10.416C37.2643 10.1387 37.6217 9.76 37.931 9.28C38.251 8.8 38.539 8.19733 38.795 7.472C38.9977 6.896 39.163 6.432 39.291 6.08C39.4297 5.728 39.5363 5.44 39.611 5.216C39.6857 4.98133 39.7337 4.77867 39.755 4.608C39.787 4.42667 39.803 4.21867 39.803 3.984C39.803 3.71733 39.755 3.456 39.659 3.2C39.5737 2.93333 39.4297 2.69867 39.227 2.496C39.0243 2.28267 38.7523 2.112 38.411 1.984C38.0803 1.84533 37.6643 1.776 37.163 1.776H35.387C35.3337 2.13867 35.259 2.544 35.163 2.992C35.0777 3.44 34.9763 3.904 34.859 4.384C34.7417 4.864 34.6137 5.36 34.475 5.872C34.3363 6.37333 34.187 6.864 34.027 7.344L32.795 11.168ZM49.2461 7.232L47.6461 12H47.1341C47.0275 11.6373 46.9475 11.2587 46.8941 10.864C46.8515 10.4693 46.8301 10.0373 46.8301 9.568C46.8301 8.768 46.9528 8 47.1981 7.264C47.4435 6.528 47.7315 5.81867 48.0621 5.136C48.4035 4.44267 48.7555 3.75467 49.1181 3.072C49.4915 2.37867 49.7955 1.67467 50.0301 0.959999H50.5901C50.5901 1.12 50.5688 1.392 50.5261 1.776C50.4835 2.14933 50.4088 2.608 50.3021 3.152C50.2061 3.696 50.0728 4.31467 49.9021 5.008C49.7315 5.70133 49.5128 6.44267 49.2461 7.232ZM59.2739 2.288H57.4499L54.4259 12H53.8659C53.7699 11.7013 53.6845 11.3333 53.6099 10.896C53.5459 10.4587 53.5139 10.0853 53.5139 9.776C53.5139 9.11467 53.6259 8.45333 53.8499 7.792C54.0739 7.12 54.3405 6.46933 54.6499 5.84C54.9699 5.2 55.2952 4.58133 55.6259 3.984C55.9565 3.376 56.2285 2.81067 56.4419 2.288H54.0579C53.5352 2.288 53.1459 2.32 52.8899 2.384C52.6445 2.43733 52.4205 2.608 52.2179 2.896H51.8339C51.8659 2.672 51.9299 2.44267 52.0259 2.208C52.1325 1.96267 52.2872 1.744 52.4899 1.552C52.7032 1.34933 52.9859 1.184 53.3379 1.056C53.6899 0.917333 54.1325 0.848 54.6659 0.848C55.0925 0.848 55.5459 0.874666 56.0259 0.927999C56.5165 0.970666 57.0019 1.024 57.4819 1.088C57.9619 1.152 58.4259 1.21067 58.8739 1.264C59.3219 1.30667 59.7165 1.328 60.0579 1.328C60.2925 1.328 60.5752 1.31733 60.9059 1.296C61.2472 1.264 61.4819 1.10933 61.6099 0.832H62.0099C61.9459 1.25867 61.7112 1.61067 61.3059 1.888C60.9005 2.15467 60.2232 2.288 59.2739 2.288Z" fill="black"/>
</svg>
