<svg width="70" height="86" viewBox="0 0 70 86" fill="none" xmlns="http://www.w3.org/2000/svg">
<path d="M5.552 17H5.024C4.90667 16.5733 4.82667 16.1413 4.784 15.704C4.74133 15.256 4.72 14.8773 4.72 14.568C4.72 13.7787 4.84267 13.0053 5.088 12.248C5.344 11.48 5.64267 10.7387 5.984 10.024C6.32533 9.29867 6.672 8.59467 7.024 7.912C7.376 7.22933 7.648 6.57867 7.84 5.96L11.856 6.184C12.2827 6.20533 12.6027 6.18933 12.816 6.136C13.04 6.072 13.2 5.976 13.296 5.848H13.472C13.472 6.49867 13.3387 6.94133 13.072 7.176C12.816 7.4 12.464 7.512 12.016 7.512C11.7067 7.512 11.3813 7.48533 11.04 7.432C10.7093 7.368 10.3787 7.29867 10.048 7.224C9.728 7.14933 9.424 7.06933 9.136 6.984C8.848 6.89867 8.592 6.83467 8.368 6.792C8.336 7.048 8.288 7.34667 8.224 7.688C8.17067 8.02933 8.10667 8.38667 8.032 8.76C7.95733 9.12267 7.872 9.50133 7.776 9.896C7.68 10.28 7.584 10.6427 7.488 10.984H11.12L10.88 11.864H7.232C7.22133 11.9067 7.2 11.9707 7.168 12.056C7.14667 12.1413 7.07733 12.3493 6.96 12.68C6.85333 13.0107 6.688 13.5173 6.464 14.2C6.25067 14.872 5.94667 15.8053 5.552 17ZM19.2443 5.816C19.8843 5.816 20.4283 5.912 20.8763 6.104C21.3349 6.296 21.7029 6.56267 21.9803 6.904C22.2683 7.24533 22.4763 7.656 22.6043 8.136C22.7429 8.60533 22.8123 9.11733 22.8123 9.672C22.8123 10.4293 22.6523 11.2453 22.3323 12.12C22.0229 12.9947 21.5856 13.8053 21.0203 14.552C20.4656 15.288 19.8043 15.9067 19.0363 16.408C18.2683 16.8987 17.4309 17.144 16.5243 17.144C15.1803 17.144 14.2309 16.8027 13.6763 16.12C13.1323 15.4373 12.8603 14.4933 12.8603 13.288C12.8603 12.5413 13.0203 11.7307 13.3403 10.856C13.6603 9.98133 14.0976 9.17067 14.6523 8.424C15.2176 7.67733 15.8896 7.05867 16.6683 6.568C17.4576 6.06667 18.3163 5.816 19.2443 5.816ZM20.2043 11.704C20.3643 11.224 20.5136 10.8187 20.6523 10.488C20.8016 10.1573 20.9243 9.87467 21.0203 9.64C21.1269 9.39467 21.2069 9.176 21.2603 8.984C21.3243 8.792 21.3563 8.58933 21.3563 8.376C21.3563 7.81067 21.1429 7.37867 20.7163 7.08C20.3003 6.77067 19.7776 6.616 19.1483 6.616C18.6043 6.616 18.1456 6.74933 17.7723 7.016C17.4096 7.272 17.1003 7.61867 16.8443 8.056C16.5883 8.48267 16.3589 8.97867 16.1562 9.544C15.9643 10.0987 15.7616 10.6693 15.5483 11.256C15.3776 11.736 15.2176 12.1413 15.0683 12.472C14.9189 12.8027 14.7909 13.0907 14.6843 13.336C14.5776 13.5813 14.4923 13.8 14.4283 13.992C14.3749 14.184 14.3483 14.3813 14.3483 14.584C14.3483 15.128 14.5349 15.56 14.9083 15.88C15.2816 16.1893 15.8149 16.344 16.5083 16.344C17.0949 16.344 17.5803 16.2213 17.9643 15.976C18.3589 15.72 18.6896 15.384 18.9563 14.968C19.2229 14.5413 19.4469 14.0453 19.6283 13.48C19.8203 12.9147 20.0123 12.3227 20.2043 11.704ZM30.6036 5.816C31.2436 5.816 31.7876 5.912 32.2356 6.104C32.6943 6.296 33.0623 6.56267 33.3396 6.904C33.6276 7.24533 33.8356 7.656 33.9636 8.136C34.1023 8.60533 34.1716 9.11733 34.1716 9.672C34.1716 10.4293 34.0116 11.2453 33.6916 12.12C33.3823 12.9947 32.945 13.8053 32.3796 14.552C31.825 15.288 31.1636 15.9067 30.3956 16.408C29.6276 16.8987 28.7903 17.144 27.8836 17.144C26.5396 17.144 25.5903 16.8027 25.0356 16.12C24.4916 15.4373 24.2196 14.4933 24.2196 13.288C24.2196 12.5413 24.3796 11.7307 24.6996 10.856C25.0196 9.98133 25.457 9.17067 26.0116 8.424C26.577 7.67733 27.249 7.05867 28.0276 6.568C28.817 6.06667 29.6756 5.816 30.6036 5.816ZM31.5636 11.704C31.7236 11.224 31.873 10.8187 32.0116 10.488C32.161 10.1573 32.2836 9.87467 32.3796 9.64C32.4863 9.39467 32.5663 9.176 32.6196 8.984C32.6836 8.792 32.7156 8.58933 32.7156 8.376C32.7156 7.81067 32.5023 7.37867 32.0756 7.08C31.6596 6.77067 31.137 6.616 30.5076 6.616C29.9636 6.616 29.505 6.74933 29.1316 7.016C28.769 7.272 28.4596 7.61867 28.2036 8.056C27.9476 8.48267 27.7183 8.97867 27.5156 9.544C27.3236 10.0987 27.121 10.6693 26.9076 11.256C26.737 11.736 26.577 12.1413 26.4276 12.472C26.2783 12.8027 26.1503 13.0907 26.0436 13.336C25.937 13.5813 25.8516 13.8 25.7876 13.992C25.7343 14.184 25.7076 14.3813 25.7076 14.584C25.7076 15.128 25.8943 15.56 26.2676 15.88C26.641 16.1893 27.1743 16.344 27.8676 16.344C28.4543 16.344 28.9396 16.2213 29.3236 15.976C29.7183 15.72 30.049 15.384 30.3156 14.968C30.5823 14.5413 30.8063 14.0453 30.9876 13.48C31.1796 12.9147 31.3716 12.3227 31.5636 11.704ZM38.475 5.96H41.067C41.963 5.96 42.7043 6.08267 43.291 6.328C43.8777 6.56267 44.3417 6.86667 44.683 7.24C45.0243 7.61333 45.2643 8.04 45.403 8.52C45.5417 9 45.611 9.47467 45.611 9.944C45.611 10.776 45.4297 11.6187 45.067 12.472C44.715 13.3147 44.2137 14.072 43.563 14.744C42.9123 15.4053 42.123 15.9493 41.195 16.376C40.2777 16.792 39.259 17 38.139 17H35.595V15.112C35.595 14.312 35.7017 13.5013 35.915 12.68C36.1283 11.8587 36.3843 11.0587 36.683 10.28C36.9817 9.49067 37.2963 8.728 37.627 7.992C37.9577 7.256 38.2403 6.57867 38.475 5.96ZM36.795 16.168H37.691C38.3523 16.168 38.9443 16.1147 39.467 16.008C39.9897 15.8907 40.4537 15.6933 40.859 15.416C41.2643 15.1387 41.6217 14.76 41.931 14.28C42.251 13.8 42.539 13.1973 42.795 12.472C42.9977 11.896 43.163 11.432 43.291 11.08C43.4297 10.728 43.5363 10.44 43.611 10.216C43.6857 9.98133 43.7337 9.77867 43.755 9.608C43.787 9.42667 43.803 9.21867 43.803 8.984C43.803 8.71733 43.755 8.456 43.659 8.2C43.5737 7.93333 43.4297 7.69867 43.227 7.496C43.0243 7.28267 42.7523 7.112 42.411 6.984C42.0803 6.84533 41.6643 6.776 41.163 6.776H39.387C39.3337 7.13867 39.259 7.544 39.163 7.992C39.0777 8.44 38.9763 8.904 38.859 9.384C38.7417 9.864 38.6137 10.36 38.475 10.872C38.3363 11.3733 38.187 11.864 38.027 12.344L36.795 16.168ZM53.2461 12.232L51.6461 17H51.1341C51.0275 16.6373 50.9475 16.2587 50.8941 15.864C50.8515 15.4693 50.8301 15.0373 50.8301 14.568C50.8301 13.768 50.9528 13 51.1981 12.264C51.4435 11.528 51.7315 10.8187 52.0621 10.136C52.4035 9.44267 52.7555 8.75467 53.1181 8.072C53.4915 7.37867 53.7955 6.67467 54.0301 5.96H54.5901C54.5901 6.12 54.5688 6.392 54.5261 6.776C54.4835 7.14933 54.4088 7.608 54.3021 8.152C54.2061 8.696 54.0728 9.31467 53.9021 10.008C53.7315 10.7013 53.5128 11.4427 53.2461 12.232ZM63.2739 7.288H61.4499L58.4259 17H57.8659C57.7699 16.7013 57.6845 16.3333 57.6099 15.896C57.5459 15.4587 57.5139 15.0853 57.5139 14.776C57.5139 14.1147 57.6259 13.4533 57.8499 12.792C58.0739 12.12 58.3405 11.4693 58.6499 10.84C58.9699 10.2 59.2952 9.58133 59.6259 8.984C59.9565 8.376 60.2285 7.81067 60.4419 7.288H58.0579C57.5352 7.288 57.1459 7.32 56.8899 7.384C56.6445 7.43733 56.4205 7.608 56.2179 7.896H55.8339C55.8659 7.672 55.9299 7.44267 56.0259 7.208C56.1325 6.96267 56.2872 6.744 56.4899 6.552C56.7032 6.34933 56.9859 6.184 57.3379 6.056C57.6899 5.91733 58.1325 5.848 58.6659 5.848C59.0925 5.848 59.5459 5.87467 60.0259 5.928C60.5165 5.97067 61.0019 6.024 61.4819 6.088C61.9619 6.152 62.4259 6.21067 62.8739 6.264C63.3219 6.30667 63.7165 6.328 64.0579 6.328C64.2925 6.328 64.5752 6.31733 64.9059 6.296C65.2472 6.264 65.4819 6.10933 65.6099 5.832H66.0099C65.9459 6.25867 65.7112 6.61067 65.3059 6.888C64.9005 7.15467 64.2232 7.288 63.2739 7.288Z" fill="black"/>
<path fill-rule="evenodd" clip-rule="evenodd" d="M50.4305 76.0764C57.2157 72.3985 62.5272 65.9403 63.0194 58.0951L33.6746 57.849H6.12834C6.61783 65.859 11.9318 72.3168 18.7983 76.0761L50.4305 76.0764ZM56.6424 21.0677L48.9591 55.4775H48.3858L51.3281 42.3181C51.082 42.2369 50.7548 42.2369 50.4303 42.2369C49.9408 40.6847 49.3674 39.2946 48.6319 37.9858L47.8151 55.4776H47.3257L49.0429 18.615C49.1241 17.3061 47.1635 17.225 47.0823 18.5339L45.3651 55.4775H44.7917L45.8546 34.2271C37.9256 26.3791 23.295 27.4419 17.4914 38.9678C12.1774 38.07 8.25603 43.7896 10.8712 48.449C6.5389 47.7945 3.43446 52.4541 3.67746 55.3153C3.51519 65.2859 8.25589 72.8071 16.7558 77.7938C16.5936 78.121 16.5936 78.4483 16.5936 78.7755V80.9011C16.5936 82.3722 17.7375 83.5973 19.2898 83.5973H49.9403C51.4115 83.5973 52.6365 82.3722 52.6365 80.9011V78.7755C52.6365 78.4483 52.5554 78.1211 52.4742 77.7938C60.8927 72.807 65.7146 65.2893 65.5526 55.3153C64.9793 48.6139 60.4036 44.1975 54.3539 42.7263L51.4927 55.4773H50.9194L58.5209 21.557C58.8481 20.2481 56.8875 19.8397 56.6414 21.0675L56.6424 21.0677ZM54.6817 47.9597C54.0273 47.9597 53.3729 49.3497 53.3729 51.067C53.3729 52.7842 54.0273 54.1743 54.6817 54.1743C55.4173 54.1743 55.9906 52.7842 55.9906 51.067C55.9906 49.3497 55.4173 47.9597 54.6817 47.9597ZM31.8764 50.1664C31.3031 50.1664 30.8948 51.2293 30.8948 52.4543C30.8948 53.7632 31.3031 54.826 31.8764 54.826C32.4498 54.826 32.8581 53.7632 32.8581 52.4543C32.8581 51.2293 32.4498 50.1664 31.8764 50.1664ZM42.0125 44.3629C41.6042 44.3629 41.2769 45.1797 41.2769 46.0802C41.2769 47.0619 41.6042 47.8786 42.0125 47.8786C42.4209 47.8786 42.7481 47.0619 42.7481 46.0802C42.7481 45.1824 42.4209 44.3629 42.0125 44.3629ZM17.8198 48.4492C17.4115 48.4492 17.0843 49.2659 17.0843 50.1664C17.0843 51.1481 17.4115 51.9648 17.8198 51.9648C18.2282 51.9648 18.5554 51.1481 18.5554 50.1664C18.5554 49.2686 18.2282 48.4492 17.8198 48.4492ZM25.9115 41.2554C25.1759 41.2554 24.6026 42.7265 24.6026 44.4438C24.6026 46.1611 25.176 47.5511 25.9115 47.5511C26.6471 47.5511 27.2204 46.1611 27.2204 44.4438C27.2204 42.7265 26.6471 41.2554 25.9115 41.2554ZM39.1519 45.915C38.4163 45.915 37.843 47.305 37.843 49.0222C37.843 50.7395 38.4163 52.1295 39.1519 52.1295C39.8875 52.1295 40.4608 50.7395 40.4608 49.0222C40.4608 47.305 39.8875 45.915 39.1519 45.915ZM33.2673 37.3317C32.5317 37.3317 31.9584 38.7217 31.9584 40.439C31.9584 42.1563 32.5317 43.5463 33.2673 43.5463C34.0029 43.5463 34.5762 42.1563 34.5762 40.439C34.5762 38.7217 34.0029 37.3317 33.2673 37.3317ZM49.9422 78.5268H19.2917C19.1294 78.5268 19.0456 78.6079 19.0456 78.7729V80.8985C19.0456 81.0608 19.1267 81.1446 19.2917 81.1446H49.9422C50.1045 81.1446 50.1883 81.0635 50.1883 80.8985V78.7729C50.1883 78.6106 50.1072 78.5268 49.9422 78.5268Z" fill="black"/>
</svg>
