<svg width="70" height="70" viewBox="0 0 70 70" fill="none" xmlns="http://www.w3.org/2000/svg">
<path fill-rule="evenodd" clip-rule="evenodd" d="M50.4305 60.0764C57.2157 56.3985 62.5272 49.9403 63.0194 42.0951L33.6746 41.849H6.12834C6.61783 49.859 11.9318 56.3168 18.7983 60.0761L50.4305 60.0764ZM56.6424 5.0677L48.9591 39.4775H48.3858L51.3281 26.3181C51.082 26.2369 50.7548 26.2369 50.4303 26.2369C49.9408 24.6847 49.3674 23.2946 48.6319 21.9858L47.8151 39.4776H47.3257L49.0429 2.615C49.1241 1.30612 47.1635 1.22498 47.0823 2.53386L45.3651 39.4775H44.7917L45.8546 18.2271C37.9256 10.3791 23.295 11.4419 17.4914 22.9678C12.1774 22.07 8.25603 27.7896 10.8712 32.449C6.5389 31.7945 3.43446 36.4541 3.67746 39.3153C3.51519 49.2859 8.25589 56.8071 16.7558 61.7938C16.5936 62.121 16.5936 62.4483 16.5936 62.7755V64.9011C16.5936 66.3722 17.7375 67.5973 19.2898 67.5973H49.9403C51.4115 67.5973 52.6365 66.3722 52.6365 64.9011V62.7755C52.6365 62.4483 52.5554 62.1211 52.4742 61.7938C60.8927 56.807 65.7146 49.2893 65.5526 39.3153C64.9793 32.6139 60.4036 28.1975 54.3539 26.7263L51.4927 39.4773H50.9194L58.5209 5.55696C58.8481 4.24809 56.8875 3.83969 56.6414 5.06748L56.6424 5.0677ZM54.6817 31.9597C54.0273 31.9597 53.3729 33.3497 53.3729 35.067C53.3729 36.7842 54.0273 38.1743 54.6817 38.1743C55.4173 38.1743 55.9906 36.7842 55.9906 35.067C55.9906 33.3497 55.4173 31.9597 54.6817 31.9597ZM31.8764 34.1664C31.3031 34.1664 30.8948 35.2293 30.8948 36.4543C30.8948 37.7632 31.3031 38.826 31.8764 38.826C32.4498 38.826 32.8581 37.7632 32.8581 36.4543C32.8581 35.2293 32.4498 34.1664 31.8764 34.1664ZM42.0125 28.3629C41.6042 28.3629 41.2769 29.1797 41.2769 30.0802C41.2769 31.0619 41.6042 31.8786 42.0125 31.8786C42.4209 31.8786 42.7481 31.0619 42.7481 30.0802C42.7481 29.1824 42.4209 28.3629 42.0125 28.3629ZM17.8198 32.4492C17.4115 32.4492 17.0843 33.2659 17.0843 34.1664C17.0843 35.1481 17.4115 35.9648 17.8198 35.9648C18.2282 35.9648 18.5554 35.1481 18.5554 34.1664C18.5554 33.2686 18.2282 32.4492 17.8198 32.4492ZM25.9115 25.2554C25.1759 25.2554 24.6026 26.7265 24.6026 28.4438C24.6026 30.1611 25.176 31.5511 25.9115 31.5511C26.6471 31.5511 27.2204 30.1611 27.2204 28.4438C27.2204 26.7265 26.6471 25.2554 25.9115 25.2554ZM39.1519 29.915C38.4163 29.915 37.843 31.305 37.843 33.0222C37.843 34.7395 38.4163 36.1295 39.1519 36.1295C39.8875 36.1295 40.4608 34.7395 40.4608 33.0222C40.4608 31.305 39.8875 29.915 39.1519 29.915ZM33.2673 21.3317C32.5317 21.3317 31.9584 22.7217 31.9584 24.439C31.9584 26.1563 32.5317 27.5463 33.2673 27.5463C34.0029 27.5463 34.5762 26.1563 34.5762 24.439C34.5762 22.7217 34.0029 21.3317 33.2673 21.3317ZM49.9422 62.5268H19.2917C19.1294 62.5268 19.0456 62.6079 19.0456 62.7729V64.8985C19.0456 65.0608 19.1267 65.1446 19.2917 65.1446H49.9422C50.1045 65.1446 50.1883 65.0635 50.1883 64.8985V62.7729C50.1883 62.6106 50.1072 62.5268 49.9422 62.5268Z" fill="black"/>
</svg>
